<svg xmlns="http://www.w3.org/2000/svg" preserveAspectRatio="none" viewBox="0 10.989999771118164 28.520000457763672 38.33000183105469" data-asc="0.9765625" width="28.520000457763672" height="38.33000183105469"><defs/><g fill="#000000"><g transform="translate(0, 0)"><path d="M13.53 49.32Q4.83 49.32 2.05 43.85Q0.42 40.67 0.12 35.38Q0 32.89 0 29.96Q0 27.03 0.17 24.40Q0.34 21.78 0.84 19.65Q1.34 17.53 2.26 15.91Q3.17 14.28 4.66 13.18Q7.74 10.99 13.53 10.99L15.04 10.99Q24.10 10.99 26.64 15.87Q28.22 18.92 28.42 24.37Q28.52 27.03 28.52 29.99Q28.52 32.96 28.37 35.46Q28.22 37.96 27.76 40.09Q27.29 42.21 26.40 43.92Q25.51 45.63 24.00 46.83Q20.87 49.32 15.04 49.32L13.53 49.32M14.99 45.80Q17.68 45.80 19.45 45.21Q21.22 44.63 22.24 43.16Q24.15 40.45 24.15 32.76L24.15 30.13Q24.15 26.44 23.95 23.56Q23.75 20.68 22.90 18.70Q21.14 14.60 15.28 14.60L13.23 14.60Q7.28 14.60 5.62 18.43Q4.57 20.87 4.47 24.19Q4.37 27.51 4.37 30.13L4.37 32.76Q4.37 39.97 6.52 42.92Q8.59 45.80 13.53 45.80L14.99 45.80Z"/></g></g></svg>