<svg xmlns="http://www.w3.org/2000/svg" preserveAspectRatio="none" viewBox="0 10.989999771118164 24.290000915527344 38.33000183105469" data-asc="0.9765625" width="24.290000915527344" height="38.33000183105469"><defs/><g fill="#000000"><g transform="translate(0, 0)"><path d="M1.61 42.94Q7.15 45.87 12.45 45.87Q18.60 45.87 19.65 41.94Q20.00 40.65 20.00 38.96L20.00 38.01Q20.00 36.30 19.75 35.25Q19.51 34.20 18.73 33.54Q17.46 32.45 12.72 31.71Q8.50 31.05 6.88 30.47Q5.27 29.88 4.24 29.19Q3.20 28.49 2.47 27.44Q0.95 25.24 0.95 21.36L0.95 21.12Q0.95 13.06 7.64 11.47Q9.77 10.99 12.45 10.99L12.77 10.99Q19.04 10.99 23.02 12.79L21.75 16.53Q16.94 14.45 12.89 14.45L12.67 14.45Q8.20 14.45 6.52 16.14Q5.10 17.55 5.10 21.04L5.10 21.14Q5.10 25.12 7.30 26.37Q8.79 27.17 12.63 27.78Q16.48 28.39 18.36 28.82Q20.24 29.25 21.56 30.22Q24.29 32.28 24.29 38.01L24.29 38.33Q24.29 47.09 17.24 48.78Q15.06 49.32 13.13 49.32Q11.21 49.32 9.63 49.18Q8.06 49.05 6.42 48.71Q2.59 47.92 0 46.36L1.61 42.94Z"/></g></g></svg>